<svg viewBox="0 0 210.57 426.52" xmlns="http://www.w3.org/2000/svg"><g fill-rule="evenodd" transform="translate(-.41 -1.3)"><path d="m105.93 36c-8.57-15.66-20.93-21.62-36.48-21.61h-67.31v177.36h67.25c15.43 0 27.86 5.95 36.48 21.62 8.8-13.35 21.62-21.56 36.17-21.56h67.09l.09-177.36h-67.1c-14.55 0-27.37 8.2-36.19 21.58z" fill="#1e1e1c" stroke="#1e1e1c" stroke-linecap="round" stroke-linejoin="round" stroke-width="3.46"/><path d="m105.6 24.65c-8.6-15.65-20.6-21.65-36.03-21.65h-67.3v177.39h67.25c15.48 0 27.48 5.91 36.08 21.61 8.81-13.37 22-21.55 36.48-21.55h67.08l.09-177.36h-67.08c-14.54 0-27.75 8.2-36.57 21.56z" fill="#fff" stroke="#1e1e1c" stroke-linecap="round" stroke-linejoin="round" stroke-width="3.46"/><path d="m2.24 204.46 1.12 108.54c.78 28.39 23.7 93.49 102.22 113.08 78.53-19.58 102.59-84.68 103.42-113.08l-.6-108.55h-66.64c-14.56 0-27.36 8.21-36.18 21.57-8.57-15.67-21-21.64-36.48-21.62h-66.91z" fill="#e20e18" stroke="#1e1e1c" stroke-linecap="round" stroke-linejoin="round" stroke-width="3.46"/><g fill="#fff"><path d="m129.39 371.48a7 7 0 0 1 -3.37 9.37 6.51 6.51 0 0 1 -.77.31c-4.64 2.52-3.77 4.54-4.94 6.57-6.77-4 2.41-9-3.33-11-3-.69-5.82 2.52-6.63 5.49h-8.71c-.83-3-3.68-6.18-6.63-5.49-5.76 2 3.44 7-3.33 11-1.11-2-.3-4-4.94-6.57a7 7 0 0 1 -4.46-8.89 5.94 5.94 0 0 1 .32-.79c4.73-7.55 13.31-4.67 18.5 1.83-2.79-4-6-6.69-4.43-11.57a10.57 10.57 0 0 1 4.12-5.37c2-1.65 4.45-3.48 5.2-5.79.75 2.31 3.15 4.14 5.21 5.79a10.53 10.53 0 0 1 4.1 5.37c1.54 4.88-1.62 7.55-4.41 11.57 5.19-6.5 13.77-9.36 18.5-1.83zm-19.19 11.32a1.77 1.77 0 1 1 .42 3.52 1.48 1.48 0 0 1 -.42 0h-8.48a1.77 1.77 0 0 1 -.42-3.52 1.48 1.48 0 0 1 .42 0zm0 4.16c.52 4.38 3.77 7.79 6.4 4.86 2.58 4.29.09 6.29-2.25 6.56-1.87.27-3.48-1.26-4.66-3.27a7.09 7.09 0 0 1 .59 2.52c0 2.72-3 4.09-4.32 6.21-1.26-2.12-4.33-3.49-4.33-6.21a6.64 6.64 0 0 1 .59-2.52c-1.19 2.05-2.81 3.54-4.65 3.27-2.34-.32-4.83-2.27-2.27-6.56 2.68 2.93 5.89-.48 6.42-4.86z"/><path d="m158.51 314.53a7.05 7.05 0 0 1 -3.38 9.39 6.36 6.36 0 0 1 -.76.31c-4.64 2.52-3.83 4.54-4.94 6.55-6.77-4 2.41-9-3.34-11-2.94-.69-5.81 2.52-6.62 5.47h-8.71c-.83-3-3.68-6.16-6.63-5.47-5.76 2 3.44 7-3.33 11-1.11-2-.3-4-4.94-6.55a7 7 0 0 1 -4.46-8.91 7.68 7.68 0 0 1 .32-.79c4.73-7.54 13.31-4.66 18.5 1.84-2.79-4-6-6.69-4.43-11.56a10.53 10.53 0 0 1 4.1-5.37c2.07-1.65 4.47-3.5 5.22-5.8.75 2.3 3.15 4.15 5.21 5.8a10.44 10.44 0 0 1 4.1 5.37c1.54 4.87-1.62 7.55-4.41 11.56 5.19-6.5 13.77-9.36 18.5-1.84zm-19.2 11.32a1.79 1.79 0 1 1 .52 3.54 2.26 2.26 0 0 1 -.52 0h-8.47a1.79 1.79 0 0 1 -.52-3.54 2.26 2.26 0 0 1 .52 0zm0 4.18c.53 4.36 3.78 7.79 6.41 4.84 2.58 4.3.09 6.29-2.25 6.57-1.87.26-3.48-1.26-4.66-3.27a7 7 0 0 1 .59 2.51c0 2.73-3 4.1-4.32 6.22-1.32-2.12-4.33-3.49-4.33-6.22a6.59 6.59 0 0 1 .59-2.51c-1.2 2.05-2.81 3.53-4.65 3.27-2.34-.33-4.83-2.27-2.27-6.57 2.68 2.95 5.89-.48 6.42-4.84z"/><path d="m100.27 314.53a7.06 7.06 0 0 1 -3.37 9.39 7.28 7.28 0 0 1 -.77.31c-4.64 2.52-3.83 4.54-4.94 6.55-6.77-4 2.41-9-3.33-11-3-.69-5.82 2.52-6.63 5.47h-8.71c-.83-3-3.68-6.16-6.63-5.47-5.76 2 3.44 7-3.33 11-1.11-2-.3-4-4.94-6.55a7 7 0 0 1 -4.46-8.91 7.68 7.68 0 0 1 .32-.79c4.73-7.54 13.29-4.66 18.5 1.84-2.79-4-6-6.69-4.43-11.56a10.53 10.53 0 0 1 4.1-5.37c2.07-1.65 4.47-3.5 5.22-5.8.75 2.3 3.15 4.15 5.21 5.8a10.53 10.53 0 0 1 4.1 5.37c1.54 4.87-1.62 7.55-4.41 11.56 5.19-6.5 13.83-9.36 18.5-1.84zm-19.19 11.32a1.79 1.79 0 0 1 .51 3.54 2.18 2.18 0 0 1 -.51 0h-8.48a1.79 1.79 0 0 1 -.52-3.54 2.26 2.26 0 0 1 .52 0zm0 4.18c.52 4.36 3.77 7.79 6.4 4.84 2.58 4.3.07 6.29-2.25 6.57-1.87.26-3.48-1.26-4.66-3.27a7 7 0 0 1 .59 2.51c0 2.73-3 4.1-4.32 6.22-1.32-2.12-4.33-3.49-4.33-6.22a6.59 6.59 0 0 1 .59-2.51c-1.26 2.05-2.8 3.53-4.65 3.27-2.34-.33-4.85-2.27-2.27-6.57 2.67 2.95 5.89-.48 6.4-4.84z"/><path d="m187.63 257.2a7 7 0 0 1 -3.34 9.36 6.07 6.07 0 0 1 -.8.32c-4.64 2.52-3.83 4.55-4.94 6.57-6.77-4 2.43-9-3.34-11-2.94-.69-5.79 2.52-6.62 5.49h-8.71c-.82-3-3.68-6.18-6.63-5.49-5.75 2 3.44 7-3.33 11-1.11-2-.3-4-4.94-6.57a7 7 0 0 1 -4.45-8.91 7.28 7.28 0 0 1 .31-.77c4.73-7.55 13.31-4.67 18.5 1.82-2.79-4-6-6.68-4.41-11.56a10.48 10.48 0 0 1 4.1-5.37c2.06-1.65 4.46-3.48 5.2-5.78.76 2.3 3.16 4.13 5.21 5.78a10.5 10.5 0 0 1 4.11 5.37c1.54 4.88-1.63 7.55-4.42 11.56 5.19-6.49 13.77-9.34 18.5-1.82zm-19.18 11.32a1.77 1.77 0 0 1 .42 3.52 1.48 1.48 0 0 1 -.42 0h-8.45a1.77 1.77 0 0 1 -.42-3.52 1.48 1.48 0 0 1 .42 0zm0 4.16c.51 4.38 3.77 7.79 6.4 4.86 2.52 4.29.08 6.29-2.26 6.56-1.85.27-3.46-1.25-4.66-3.28a6.64 6.64 0 0 1 .59 2.52c0 2.71-3 4.09-4.32 6.21-1.26-2.12-4.33-3.5-4.33-6.21a7.09 7.09 0 0 1 .59-2.52c-1.18 2.06-2.79 3.55-4.65 3.28-2.34-.34-4.83-2.27-2.26-6.56 2.67 2.93 5.88-.48 6.41-4.86z"/><path d="m129.39 257.2a7 7 0 0 1 -3.37 9.37 5.16 5.16 0 0 1 -.77.31c-4.64 2.52-3.77 4.55-4.94 6.57-6.77-4 2.41-9-3.33-11-3-.69-5.82 2.52-6.63 5.49h-8.71c-.83-3-3.68-6.18-6.63-5.49-5.76 2 3.44 7-3.33 11-1.11-2-.3-4-4.94-6.57a7 7 0 0 1 -4.46-8.88 5.56 5.56 0 0 1 .32-.8c4.73-7.55 13.31-4.67 18.5 1.82-2.79-4-6-6.68-4.43-11.56a10.57 10.57 0 0 1 4.12-5.37c2-1.65 4.45-3.48 5.2-5.78.75 2.3 3.15 4.13 5.21 5.78a10.53 10.53 0 0 1 4.1 5.37c1.54 4.88-1.62 7.55-4.41 11.56 5.19-6.49 13.77-9.34 18.5-1.82zm-19.19 11.32a1.77 1.77 0 1 1 .42 3.52 1.48 1.48 0 0 1 -.42 0h-8.48a1.77 1.77 0 0 1 -.42-3.52 1.48 1.48 0 0 1 .42 0zm0 4.16c.52 4.38 3.77 7.79 6.4 4.86 2.58 4.29.09 6.29-2.25 6.56-1.87.27-3.48-1.25-4.66-3.28a7.09 7.09 0 0 1 .59 2.52c0 2.71-3 4.09-4.32 6.21-1.26-2.12-4.33-3.5-4.33-6.21a6.64 6.64 0 0 1 .59-2.52c-1.19 2.06-2.81 3.55-4.65 3.28-2.34-.34-4.83-2.27-2.27-6.56 2.68 2.93 5.89-.48 6.42-4.86z"/><path d="m71.15 257.2a7 7 0 0 1 -3.37 9.37 5.28 5.28 0 0 1 -.78.31c-4.64 2.52-3.77 4.55-4.94 6.57-6.76-4 2.42-9-3.34-11-2.93-.69-5.8 2.52-6.63 5.49h-8.71c-.83-3-3.7-6.18-6.65-5.49-5.74 2 3.44 7-3.32 11-1.12-2-.3-4-4.95-6.57a7 7 0 0 1 -4.46-8.88 7.28 7.28 0 0 1 .31-.77c4.74-7.55 13.31-4.67 18.5 1.82-2.79-4-6-6.68-4.41-11.56a10.57 10.57 0 0 1 4.1-5.37c2.06-1.65 4.46-3.48 5.21-5.78.75 2.3 3.15 4.13 5.22 5.78a10.68 10.68 0 0 1 4.1 5.37c1.53 4.88-1.63 7.55-4.43 11.56 5.21-6.49 13.77-9.34 18.52-1.82zm-19.15 11.32a1.77 1.77 0 1 1 .42 3.52 1.48 1.48 0 0 1 -.42 0h-8.51a1.77 1.77 0 0 1 -.42-3.52 1.48 1.48 0 0 1 .42 0zm0 4.16c.51 4.38 3.77 7.79 6.4 4.86 2.58 4.29.07 6.29-2.27 6.56-1.85.27-3.46-1.25-4.64-3.28a6.63 6.63 0 0 1 .58 2.52c0 2.71-3 4.09-4.33 6.21-1.25-2.12-4.32-3.5-4.32-6.21a7.09 7.09 0 0 1 .59-2.52c-1.18 2.06-2.79 3.55-4.66 3.28-2.32-.34-4.83-2.27-2.25-6.56 2.67 2.93 5.89-.48 6.4-4.86z"/><path d="m89 106.37 3.09-2.77c17.49-15.85 30.36-30.33 48.8-45.78 11.65-9.74 10.36-11.71-2.08-2.15-18.67 14.33-28 24.42-47.71 45.19-2.31 2.44-4.5 5-6.62 7.66-3.2 4 0 2 4.52-2.15z"/></g><path d="m48.33 70.1 22.72-24.93 4.33 3.95c-4.59 6.68-4.66 12.1.29 17l3 3 65.48 56.43 19.8 18-9.37 10.28-19.67-18-62-60.53a23.36 23.36 0 0 0 -2.91-2.63c-5.82-4.18-11.57-2.88-17.33 1.44l-4.33-4zm-14-20.94c-.81-6.84-.49-10.73 1.73-13s6.32-2.61 12.94-2.45l10.17 21-2.52 2.77-22.28-8.32zm11.9 19.73-1.44-.4c-3.53-1-8.4-2.59-10.76-4.72s-2.05-5 4.27-7.89l1.7-.73.2-.09 13.94 5.28-7.88 8.66zm23.42-25.63c-.16-.44-.36-.93-.57-1.45-1.38-3.36-3.49-8-5.88-10.06s-5.22-1.47-7.55 5l-.52 1.61 6.54 13.64 8-8.73zm97.83 103.43 11.52 13.1-6.82 7.47-14-10.19-.13-.11 9.4-10.29z" fill="#010101"/><path d="m134.38 50.15c-12.16 8.24-22.73 19.78-33.54 29.73l-3.66 3.87a87 87 0 0 0 -10.48 11.8q-6.84 8.94-13.62 18.1c-1.26 1.81-2.52 3.66-3.78 5.52-.73 1-.92.68-1.86.45l-.23.31a2.73 2.73 0 0 1 -.21.3 1.81 1.81 0 0 1 -.19.29c0 .09-.11.19-.19.27 0 .1-.11.18-.16.27a2.26 2.26 0 0 1 -.16.26.78.78 0 0 1 -.16.24 1 1 0 0 1 -.13.22l-.13.22a1.51 1.51 0 0 1 -.11.22.75.75 0 0 1 -.13.18.84.84 0 0 1 -.12.23.54.54 0 0 1 -.11.18l-.08.17-.08.17a.06.06 0 0 1 0 .06s0 .1-.07.11a6.53 6.53 0 0 0 -.75 3.85.06.06 0 0 1 0 .06c0 .32.07.63.1 1v.56a8.3 8.3 0 0 1 0 1.41.29.29 0 0 1 -.07.12c-.74-.8-1.5-1.58-2.27-2.36a.06.06 0 0 1 -.08 0h-.39a.14.14 0 0 0 0 .09 2.37 2.37 0 0 0 .16.84v.11.14a6.9 6.9 0 0 1 .38 3.57.17.17 0 0 1 0 .1c-1.13 1.34-2.29 2.62-3.44 3.91l-23.53 26.55c-6.29 7 2.38 1.37 6-.4a18.61 18.61 0 0 0 3.41-2.28c3.92-4.32 14.08-16.21 19.62-20.86a12.08 12.08 0 0 1 1.26-.85c2.58-.14 6.77-.88 8.29-2 .53-.63 1-1.26 1.53-1.9 9.4-.76 3.92-.83 2.83-2.52 3.63 1.17 12.38-3.27 14.94-6.46l2.83-3.9c-4 .48-4.07 8.3-13.12 3.4-.65-.37-1.26-.69-2-1.1-1.26-.79 2.94-1.73 3.41-1.91a35.11 35.11 0 0 1 5.71-1.57 29.66 29.66 0 0 0 11-4.42 61.91 61.91 0 0 0 10.82-7.1c11.82-9.85 31.12-30.05 45.14-47.58.69-.83 1.37-1.67 2-2.51 1.07-1.37-7.55-.43-6.6-1.75 1.25-1.71 10.39-3 13.32-7.28l1.52-2.2c13-19.32 11.32-28.14-32.4 1.44z" fill="#010101"/><path d="m44.84 152.82-9.9 11.18c-6.29 7 2.37 1.38 6-.4a18.9 18.9 0 0 0 3.41-2.27c2.2-2.43 6.36-7.36 10.64-11.89l-10.06 3.37z" fill="#010101"/><path d="m89 106.37 3.09-2.77c17.49-15.85 30.36-30.33 48.8-45.78 11.65-9.74 10.36-11.71-2.08-2.15-18.67 14.33-28 24.42-47.71 45.19-2.31 2.44-4.5 5-6.62 7.66-3.2 4 0 2 4.52-2.15z" fill="#fff"/></g></svg>