<svg xmlns="http://www.w3.org/2000/svg" viewBox="0 0 527.04 527.04" xmlns:v="https://vecta.io/nano"><style><![CDATA[.L{fill:#1d1d1b}.M{stroke:#1d1d1b}.N{font-size:37.11px}.O{stroke-miterlimit:10}.P{stroke-width:.5}.Q{font-family:Cambria}.R{fill-rule:evenodd}]]></style><g class="M"><circle cx="263.52" cy="263.52" r="260.4" fill="#fff" stroke-width="6.23"/><g stroke-linejoin="round" stroke-width="3.46" class="R"><path d="M263.66 131.19c-6.81-12.46-16.68-17.2-29-17.19h-53.51v141h53.46c12.27 0 22.15 4.73 29 17.19 7-10.62 17.19-17.14 28.76-17.14h53.33l.07-141h-53.34c-11.57 0-21.76 6.52-28.77 17.15z" class="L"/><path d="M263.4 122.16c-6.81-12.46-16.38-17.2-28.65-17.19h-53.5v141h53.46c12.27 0 21.88 4.7 28.69 17.17 7-10.63 17.46-17.13 29-17.13h53.33l.07-141h-53.33c-11.56 0-22.06 6.52-29.07 17.14z" fill="#fff"/><path d="M181.23 265.1l.89 86.3c.62 22.57 18.84 74.32 81.26 89.9 62.43-15.58 81.56-67.33 82.18-89.9l-.48-86.3h-52.94c-11.57 0-21.75 6.53-28.76 17.15-6.81-12.46-16.69-17.2-29-17.19h-53.19z" fill="#e30613"/></g></g><g fill="#fff" class="R"><path d="M282.31 397.88a5.6 5.6 0 0 1-3.29 7.7c-3.69 2-3 3.61-3.93 5.22-5.38-3.21 1.92-7.14-2.65-8.75-2.34-.55-4.62 2-5.27 4.36h-6.92c-.66-2.4-2.93-4.91-5.27-4.36-4.58 1.61 2.73 5.54-2.65 8.75-.88-1.61-.24-3.21-3.93-5.22a5.59 5.59 0 0 1-3.29-7.7c3.76-6 10.58-3.71 14.71 1.46-2.22-3.2-4.74-5.32-3.52-9.2a8.38 8.38 0 0 1 3.27-4.27c1.63-1.31 3.54-2.77 4.14-4.6.59 1.83 2.5 3.29 4.14 4.6a8.36 8.36 0 0 1 3.26 4.27c1.22 3.88-1.29 6-3.51 9.2 4.13-5.17 10.95-7.44 14.71-1.46zm-15.26 9a1.41 1.41 0 1 1 0 2.8h-6.74a1.41 1.41 0 1 1 0-2.8zm0 3.31c.42 3.48 3 6.19 5.09 3.86 2.05 3.41.07 5-1.79 5.22-1.48.21-2.76-1-3.7-2.6a5.57 5.57 0 0 1 .47 2c0 2.16-2.4 3.25-3.44 4.94-1-1.69-3.44-2.78-3.44-4.94a5.17 5.17 0 0 1 .47-2c-.95 1.63-2.23 2.81-3.7 2.6-1.86-.26-3.84-1.81-1.8-5.22 2.13 2.33 4.68-.38 5.1-3.86zm38.41-57.58a5.61 5.61 0 0 1-3.29 7.71c-3.69 2-3.05 3.61-3.93 5.21-5.38-3.21 1.92-7.14-2.65-8.74-2.34-.55-4.62 2-5.27 4.35h-6.92c-.66-2.39-2.93-4.9-5.27-4.35-4.58 1.6 2.73 5.53-2.65 8.74-.88-1.6-.24-3.21-3.93-5.21a5.6 5.6 0 0 1-3.29-7.71c3.76-6 10.58-3.71 14.71 1.46-2.22-3.2-4.74-5.32-3.52-9.19a8.37 8.37 0 0 1 3.26-4.27c1.64-1.31 3.55-2.78 4.15-4.61.59 1.83 2.5 3.3 4.14 4.61a8.32 8.32 0 0 1 3.26 4.27c1.22 3.87-1.29 6-3.51 9.19 4.13-5.17 10.95-7.44 14.71-1.46zm-15.26 9a1.42 1.42 0 1 1 0 2.81h-6.74a1.42 1.42 0 1 1 0-2.81zm0 3.32c.42 3.47 3 6.19 5.09 3.85 2.05 3.42.07 5-1.79 5.22-1.48.21-2.76-1-3.7-2.6a5.57 5.57 0 0 1 .47 2c0 2.17-2.4 3.26-3.44 4.94-1.05-1.68-3.44-2.77-3.44-4.94a5.17 5.17 0 0 1 .47-2c-.95 1.63-2.23 2.81-3.7 2.6-1.86-.26-3.84-1.8-1.8-5.22 2.13 2.34 4.68-.38 5.1-3.85zm-31.04-12.32a5.61 5.61 0 0 1-3.29 7.71c-3.69 2-3.05 3.61-3.93 5.21-5.38-3.21 1.92-7.14-2.65-8.74-2.34-.55-4.62 2-5.27 4.35h-6.92c-.66-2.39-2.93-4.9-5.27-4.35-4.58 1.6 2.73 5.53-2.65 8.74-.88-1.6-.24-3.21-3.93-5.21a5.6 5.6 0 0 1-3.29-7.71c3.76-6 10.57-3.71 14.71 1.46-2.22-3.2-4.74-5.32-3.52-9.19a8.37 8.37 0 0 1 3.26-4.27c1.64-1.31 3.55-2.78 4.15-4.61.59 1.83 2.5 3.3 4.14 4.61a8.37 8.37 0 0 1 3.26 4.27c1.22 3.87-1.29 6-3.51 9.19 4.13-5.17 11-7.44 14.71-1.46zm-15.26 9a1.42 1.42 0 1 1 0 2.81h-6.74a1.42 1.42 0 1 1 0-2.81zm0 3.32c.42 3.47 3 6.19 5.09 3.85 2.05 3.42.06 5-1.79 5.22-1.48.21-2.76-1-3.7-2.6a5.57 5.57 0 0 1 .47 2c0 2.17-2.4 3.26-3.44 4.94-1.05-1.68-3.44-2.77-3.44-4.94a5.17 5.17 0 0 1 .47-2c-1 1.63-2.23 2.81-3.7 2.6-1.86-.26-3.85-1.8-1.8-5.22 2.12 2.34 4.68-.38 5.09-3.85zm84.71-57.9a5.59 5.59 0 0 1-3.29 7.7c-3.69 2-3.05 3.61-3.93 5.22-5.38-3.21 1.93-7.14-2.65-8.75-2.34-.55-4.61 2-5.27 4.36h-6.92c-.65-2.4-2.93-4.91-5.27-4.36-4.57 1.61 2.73 5.54-2.65 8.75-.88-1.61-.24-3.21-3.93-5.22a5.6 5.6 0 0 1-3.29-7.7c3.76-6 10.58-3.71 14.71 1.45-2.22-3.19-4.73-5.31-3.51-9.19a8.36 8.36 0 0 1 3.26-4.27c1.64-1.31 3.55-2.77 4.14-4.6.6 1.83 2.51 3.29 4.14 4.6a8.38 8.38 0 0 1 3.27 4.27c1.22 3.88-1.3 6-3.52 9.19 4.13-5.16 10.95-7.43 14.71-1.45zm-15.25 9a1.41 1.41 0 1 1 0 2.8h-6.74a1.41 1.41 0 1 1 0-2.8zm0 3.31c.41 3.48 3 6.19 5.09 3.86 2 3.41.06 5-1.8 5.22-1.47.21-2.75-1-3.7-2.61a5.21 5.21 0 0 1 .47 2c0 2.16-2.4 3.25-3.44 4.94-1-1.69-3.44-2.78-3.44-4.94a5.61 5.61 0 0 1 .47-2c-.94 1.64-2.22 2.82-3.7 2.61-1.86-.27-3.84-1.81-1.79-5.22 2.12 2.33 4.67-.38 5.09-3.86z"/><path d="M282.31 307.03a5.6 5.6 0 0 1-3.29 7.7c-3.69 2-3 3.61-3.93 5.22-5.38-3.21 1.92-7.14-2.65-8.75-2.34-.55-4.62 2-5.27 4.36h-6.92c-.66-2.4-2.93-4.91-5.27-4.36-4.58 1.61 2.73 5.54-2.65 8.75-.88-1.61-.24-3.21-3.93-5.22a5.59 5.59 0 0 1-3.29-7.7c3.76-6 10.58-3.71 14.71 1.45-2.22-3.19-4.74-5.31-3.52-9.19a8.38 8.38 0 0 1 3.27-4.27c1.63-1.31 3.54-2.77 4.14-4.6.59 1.83 2.5 3.29 4.14 4.6a8.36 8.36 0 0 1 3.26 4.27c1.22 3.88-1.29 6-3.51 9.19 4.13-5.16 10.95-7.43 14.71-1.45zm-15.26 9a1.41 1.41 0 1 1 0 2.8h-6.74a1.41 1.41 0 1 1 0-2.8zm0 3.31c.42 3.48 3 6.19 5.09 3.86 2.05 3.41.07 5-1.79 5.22-1.48.21-2.76-1-3.7-2.61a5.61 5.61 0 0 1 .47 2c0 2.16-2.4 3.25-3.44 4.94-1-1.69-3.44-2.78-3.44-4.94a5.21 5.21 0 0 1 .47-2c-.95 1.64-2.23 2.82-3.7 2.61-1.86-.27-3.84-1.81-1.8-5.22 2.13 2.33 4.68-.38 5.1-3.86zm-31.04-12.31a5.6 5.6 0 0 1-3.3 7.7c-3.69 2-3 3.61-3.93 5.22-5.37-3.21 1.93-7.14-2.65-8.75-2.33-.55-4.61 2-5.27 4.36h-6.93c-.66-2.4-2.94-4.91-5.28-4.36-4.57 1.61 2.73 5.54-2.64 8.75-.89-1.61-.24-3.21-3.94-5.22a5.6 5.6 0 0 1-3.29-7.7c3.77-6 10.58-3.71 14.71 1.45-2.22-3.19-4.73-5.31-3.51-9.19a8.42 8.42 0 0 1 3.26-4.27c1.64-1.31 3.55-2.77 4.14-4.6.6 1.83 2.51 3.29 4.15 4.6a8.42 8.42 0 0 1 3.26 4.27c1.22 3.88-1.29 6-3.52 9.19 4.14-5.16 10.95-7.43 14.72-1.45zm-15.26 9a1.41 1.41 0 1 1 0 2.8h-6.73a1.41 1.41 0 1 1 0-2.8zm0 3.31c.41 3.48 3 6.19 5.09 3.86 2.05 3.41.06 5-1.8 5.22-1.47.21-2.75-1-3.69-2.61a5.35 5.35 0 0 1 .46 2c0 2.16-2.39 3.25-3.44 4.94-1-1.69-3.44-2.78-3.44-4.94a5.61 5.61 0 0 1 .47-2c-.94 1.64-2.22 2.82-3.7 2.61-1.85-.27-3.84-1.81-1.79-5.22 2.12 2.33 4.68-.38 5.09-3.86z"/></g><g class="M"><g fill="none" stroke-width="2.12"><circle cx="263.52" cy="263.52" r="195.44"/><circle cx="263.52" cy="263.52" r="252.18"/></g><g stroke-width=".57" class="L"><circle cx="144.84" cy="455.93" r="4.41"/><circle cx="377.95" cy="455.93" r="4.41"/></g></g><g class="R"><use href="#B" fill="#fff"/><path d="M217.87 158.29l18.06-19.82 3.44 3.14c-3.65 5.31-3.7 9.62.23 13.54l2.37 2.36 52.06 44.86 15.74 14.29-7.45 8.17-15.64-14.3-49.27-48.12a18.37 18.37 0 0 0-2.32-2.08c-4.63-3.32-9.2-2.29-13.78 1.15l-3.44-3.15zm-11.11-16.65c-.64-5.44-.39-8.53 1.38-10.33s5-2.08 10.27-1.95l8.08 16.72-2 2.2-17.72-6.64zm9.46 15.69l-1.14-.32c-2.81-.79-6.68-2.06-8.56-3.75s-1.63-3.95 3.4-6.28l1.32-.58.16-.07 11.08 4.2-6.26 6.85zm18.6-20.38c-.13-.35-.29-.74-.46-1.15-1.09-2.67-2.77-6.34-4.67-8s-4.15-1.17-6 4l-.42 1.28 5.2 10.78 6.33-6.94zm77.77 82.23h0l9.18 10.41-5.42 5.94-11.13-8.1-.1-.09 7.47-8.18z"/><path d="M286.28 142.43c-9.67 6.55-18.07 15.72-26.67 23.63l-2.91 3.08a69.41 69.41 0 0 0-8.33 9.38q-5.43 7.11-10.83 14.39l-3 4.39c-.58.79-.73.54-1.48.36l-.18.24h0a2.07 2.07 0 0 1-.17.24h0a1.5 1.5 0 0 1-.15.23c0 .07-.09.15-.15.22h0c0 .08-.09.14-.13.21s0 0 0 0a1.2 1.2 0 0 1-.13.21.62.62 0 0 1-.12.19.71.71 0 0 1-.11.17l-.1.18h0a.91.91 0 0 1-.09.17.56.56 0 0 1-.1.15h0a.77.77 0 0 1-.1.18.39.39 0 0 1-.08.14l-.07.14a1.39 1.39 0 0 1-.06.13.07.07 0 0 1 0 .05s0 .08-.06.09h0a5.16 5.16 0 0 0-.59 3.06h0a.11.11 0 0 1 0 .05h0c0 .25.05.5.08.79h0 0 0v.45h0 0a8.19 8.19 0 0 1 0 1.12h0 0 0a.24.24 0 0 1-.06.09l-1.8-1.87a.08.08 0 0 1-.07 0h0-.06-.25 0 0 0a.15.15 0 0 0 0 .07h0 0 0 0 0a2 2 0 0 0 .13.67h0v.06h0a.81.81 0 0 0 0 .11 5.4 5.4 0 0 1 .3 2.84h0a.13.13 0 0 1 0 .08c-.9 1.06-1.82 2.08-2.73 3.11l-18.71 21.13c-5 5.54 1.89 1.09 4.74-.32a15.05 15.05 0 0 0 2.71-1.81c3.12-3.44 11.19-12.89 15.6-16.59a9.42 9.42 0 0 1 1-.67c2.05-.11 5.38-.7 6.59-1.57.42-.5.82-1 1.22-1.51 7.47-.6 3.11-.66 2.25-2 2.88.93 9.84-2.6 11.87-5.14l2.29-3.12c-3.14.38-3.23 6.6-10.43 2.7l-1.55-.87c-1-.63 2.34-1.38 2.71-1.52a27.9 27.9 0 0 1 4.46-1.25 23.65 23.65 0 0 0 8.74-3.51 49 49 0 0 0 8.6-5.65c9.4-7.83 24.74-23.89 35.89-37.82q.82-1 1.62-2c.85-1.09-6-.34-5.25-1.39 1-1.36 8.26-2.42 10.59-5.79l1.21-1.75c10.32-15.36 9-22.37-25.76 1.15z"/><path d="M215.09 224.05l-7.87 8.9c-5 5.54 1.89 1.09 4.74-.32a15.05 15.05 0 0 0 2.71-1.81c1.75-1.93 5.06-5.85 8.46-9.45l-8 2.68z"/><use href="#B" fill="#fff"/></g><text transform="matrix(-.701034 -.713128 .713128 -.701034 123.87 415.52)" class="L M N O P Q">P</text><text transform="matrix(-.61 -.79 .79 -.61 106.84 398)" class="L M N O P Q">A</text><text transform="matrix(-.49 -.87 .87 -.49 89.93 375.52)" class="L M N O P Q">Ń</text><text transform="matrix(-.37 -.93 .93 -.37 75.38 348.54)" class="L M N O P Q">S</text><text transform="matrix(-.253589 -.967312 .967312 -.253589 66.74 326.39)" class="L M N O P Q">T</text><text transform="matrix(-.099841 -.995003 .995003 -.099841 59.95 301.08)" class="L M N O P Q">W</text><text transform="matrix(.06 -1 1 .06 56.85 263.5)" class="L M N O P Q">O</text><text transform="matrix(.213883 -.976859 .976859 .213883 58.32 235.42)" class="L M N O P Q">W</text><text transform="matrix(.36 -.93 .93 .36 66.55 200.37)" class="L M N O P Q">A</text><text transform="matrix(.592857 -.805308 .805308 .592857 90.46 150.08)" class="L M N O P Q">A</text><text transform="matrix(.69704 -.717032 .717032 .69704 107.52 127.49)" class="L M N O P Q">K</text><text transform="matrix(.79 -.62 .62 .79 127.69 107.27)" class="L M N O P Q">A</text><text transform="matrix(.866113 -.499849 .499849 .866113 150.09 90.16)" class="L M N O P Q">D</text><text transform="matrix(.93 -.38 .38 .93 176.07 75.69)" class="L M N O P Q">E</text><text transform="matrix(.971714 -.23616 .23616 .971714 200.14 65.91)" class="L M N O P Q">M</text><text transform="matrix(.994094 -.10852 .10852 .994094 235.13 58.39)" class="L M N O P Q">I</text><text transform="matrix(.999905 .013788 -.013788 .999905 252.99 56.34)" class="L M N O P Q">A</text><text transform="matrix(.96131 .27547 -.27547 .96131 308.76 60.98)" class="L M N O P Q">N</text><text transform="matrix(.91 .41 -.41 .91 337.14 69.51)" class="L M N O P Q">A</text><text transform="matrix(.850444 .526066 -.526066 .850444 362.16 80.93)" class="L M N O P Q">U</text><text transform="matrix(.77 .64 -.64 .77 386.74 96.59)" class="L M N O P Q">K</text><text transform="matrix(.58 .82 -.82 .58 427.08 136.07)" class="L M N O P Q">S</text><text transform="matrix(.47 .88 -.88 .47 440.69 155.6)" class="L M N O P Q">T</text><text transform="matrix(.35 .94 -.94 .35 453.16 179.26)" class="L M N O P Q">O</text><text transform="matrix(.225801 .974173 -.974173 .225801 463.08 207.3)" class="L M N O P Q">S</text><text transform="matrix(.1 1 -1 .1 468.32 230.67)" class="L M N O P Q">O</text><text transform="matrix(-.060177 .998188 -.998188 -.060177 471.14 258.75)" class="L M N O P Q">W</text><text transform="matrix(-.21 .98 -.98 -.21 468.43 294.71)" class="L M N O P Q">A</text><text transform="matrix(-.342676 .939454 -.939454 -.342676 462.38 322.11)" class="L M N O P Q">N</text><text transform="matrix(-.468701 .883357 -.883357 -.468701 451.5 350.47)" class="L M N O P Q">Y</text><text transform="matrix(-.573576 .819152 -.819152 -.573576 439.26 372.94)" class="L M N O P Q">C</text><text transform="matrix(-.679697 .733493 -.733493 -.679697 424.12 394.21)" class="L M N O P Q">H</text><path d="M179.28 485.71a6.62 6.62 0 0 0 0 1.12.5.5 0 0 0 .31.45.49.49 0 0 0 .42 0 2.64 2.64 0 0 0 .56-.44l.92-.94 1.47-1.61 2-2.29 2.28-2.68 2.33-2.77 2.12-2.54 1.67-2 1-1.19h.07l1.24 20.09a10.88 10.88 0 0 0 .15 1.55c.07.32.18.5.35.54a.5.5 0 0 0 .43 0 1.7 1.7 0 0 0 .48-.42 8.75 8.75 0 0 0 .67-.85l1.74-2.29 2.07-2.74 2.28-3 2.32-3 2.22-2.88 2-2.54 1.59-2 1.26-1.56a7.65 7.65 0 0 1 1-1.07 1.57 1.57 0 0 1 .94-.41 2.62 2.62 0 0 1 .68.07 5.79 5.79 0 0 1 .61.17.72.72 0 0 0 .39.05.3.3 0 0 0 .22-.23.25.25 0 0 0-.09-.28 1.49 1.49 0 0 0-.44-.22l-.91-.29-.91-.27-.73-.21-.4-.12-.66-.26-1.26-.49-1.64-.63a2.07 2.07 0 0 0-.63-.14.27.27 0 0 0-.29.18.3.3 0 0 0 .09.3 1.14 1.14 0 0 0 .4.22 3.4 3.4 0 0 1 1 .51 1.05 1.05 0 0 1 .37.55 1.14 1.14 0 0 1-.05.58 5.52 5.52 0 0 1-.39.87c-.18.32-.4.67-.66 1l-1.56 2.18-1.91 2.64-2 2.82-1.92 2.68-1.61 2.26-1.06 1.53h-.11l-1.2-20.2c0-.42 0-.78-.07-1.06a2.41 2.41 0 0 0-.11-.65.46.46 0 0 0-.27-.29.51.51 0 0 0-.5.12 4.34 4.34 0 0 0-.82.84l-13.11 16h-.1V479l.07-2.32.1-2.82.11-3 .12-2.86.11-2.4.1-1.59c0-.86.1-1.59.15-2.2a5.74 5.74 0 0 1 .18-1.27 1.2 1.2 0 0 1 .24-.45.56.56 0 0 1 .41-.18 1.07 1.07 0 0 1 .47 0 3 3 0 0 1 .45.14 1.32 1.32 0 0 0 .47.1.28.28 0 0 0 .27-.2c.08-.21-.13-.4-.62-.57l-1.86-.61-1.37-.42-.7-.21c-.09 0-.25-.09-.51-.19l-.94-.36-1.23-.47-1.36-.48a1.54 1.54 0 0 0-.59-.13.26.26 0 0 0-.29.18.28.28 0 0 0 .06.31 1.08 1.08 0 0 0 .39.2 3.41 3.41 0 0 1 .42.16l.48.28a2 2 0 0 1 .4.36 2.58 2.58 0 0 1 .37 1.12 12.16 12.16 0 0 1 .07 1.81l-.23 24.85zm59.69-5.1h.11l.71.93 1.3 1.7 1.75 2.25 2 2.57 2.18 2.64q1.33 1.56 2.74 3.26 1.41 1.7 2.75 3.3l2.51 3 2 2.29a4.93 4.93 0 0 0 .58.62 1.16 1.16 0 0 0 .6.31.39.39 0 0 0 .39-.24 2.25 2.25 0 0 0 .19-.87l2.45-23.29a10 10 0 0 1 .29-1.66 2.18 2.18 0 0 1 .5-.95 1.62 1.62 0 0 1 .85-.41 3.3 3.3 0 0 1 .6-.05h.52c.45 0 .68-.05.7-.27a.31.31 0 0 0-.22-.3 2.22 2.22 0 0 0-.6-.11l-1.66-.11-1.25-.06h-.73l-1.07-.13-1.55-.18-1.84-.2a2.63 2.63 0 0 0-.69 0 .28.28 0 0 0-.3.25.28.28 0 0 0 .11.26 1 1 0 0 0 .45.13l.62.06a6 6 0 0 1 .7.11 3.21 3.21 0 0 1 .62.22 1.61 1.61 0 0 1 .67.59 2.33 2.33 0 0 1 .31 1 10.84 10.84 0 0 1 0 1.8l-1.08 16.63h-.19l-.77-.93-1.42-1.78-1.77-2.22-1.85-2.24-1.59-2-2.94-3.53-2.74-3.37-2.32-2.89-1.66-2.1-.77-1-.69-.89a.89.89 0 0 0-.57-.37.41.41 0 0 0-.41.31 3.6 3.6 0 0 0-.19.9l-2.24 21.94-.32 2.54a4.13 4.13 0 0 1-.46 1.4 1.14 1.14 0 0 1-.77.54 4.74 4.74 0 0 1-.86.08h-.82a1 1 0 0 0-.44 0 .22.22 0 0 0-.18.21.31.31 0 0 0 .2.33 2 2 0 0 0 .58.12l1.82.12 1.43.08h.76l1.65.2 2.92.32a2.45 2.45 0 0 0 .63 0 .32.32 0 0 0 .25-.28.23.23 0 0 0-.14-.24 1.19 1.19 0 0 0-.46-.11 8.45 8.45 0 0 1-.94-.13 4.11 4.11 0 0 1-1-.3 1.26 1.26 0 0 1-.6-.59 3.7 3.7 0 0 1-.33-1.32 14.5 14.5 0 0 1 0-2.3l1-15.57zm39.83 15.41c0 .21 0 .5.07.88s.06.82.09 1.31l.05 1.52a3.43 3.43 0 0 1-.2 1.39 1.17 1.17 0 0 1-.76.74 5.71 5.71 0 0 1-.57.16l-.72.11a.83.83 0 0 0-.44.12.22.22 0 0 0-.12.22.3.3 0 0 0 .24.28 1.87 1.87 0 0 0 .6 0l1.17-.12 1.31-.15 1.22-.14.92-.1 1.39-.09 2-.13c.73 0 1.5-.1 2.28-.17a1.71 1.71 0 0 0 .56-.13.33.33 0 0 0 .19-.3.25.25 0 0 0-.16-.21 1 1 0 0 0-.46 0 5.41 5.41 0 0 1-.59 0h-.67-.6a1.61 1.61 0 0 1-.9-.29 1.51 1.51 0 0 1-.53-.66 3.37 3.37 0 0 1-.27-1q-.12-.78-.21-1.5l-.14-1.31-.08-.87-.27-3c0-.41-.06-.81-.08-1.21a7.15 7.15 0 0 1 0-1.22 6.79 6.79 0 0 1 .28-1.32 10.47 10.47 0 0 1 .44-1.12l.79-1.78 1-2.16 1.11-2.3 1.09-2.16.93-1.75a11.06 11.06 0 0 1 .65-1.1q.35-.54.63-.9a5 5 0 0 1 .56-.62 3.61 3.61 0 0 1 .65-.47 3.92 3.92 0 0 1 .85-.41 3.47 3.47 0 0 1 .73-.18 1.11 1.11 0 0 0 .5-.13.29.29 0 0 0 .17-.3.24.24 0 0 0-.2-.22 1.53 1.53 0 0 0-.49 0l-.8.08-1.13.14-1.15.14-.86.09c-.54 0-1.1.07-1.69.09l-1.8.11a1 1 0 0 0-.47.11.25.25 0 0 0-.13.27c0 .11.09.18.23.23l.47.09a.94.94 0 0 1 .66.32 1 1 0 0 1 .2.53 3.23 3.23 0 0 1 0 .85 7.31 7.31 0 0 1-.3 1.12l-.38.91-.68 1.56-.86 1.93-.91 2.05-.85 1.89-.65 1.49-.33.82-.58-.84-1-1.49-1.32-1.88-1.41-2-1.31-1.9-1-1.51-.56-.86-.38-.69a1.46 1.46 0 0 1-.17-.53.6.6 0 0 1 .1-.43.61.61 0 0 1 .36-.28 6.06 6.06 0 0 0 .6-.23c.12-.07.18-.14.17-.25s-.21-.32-.58-.28c-.55 0-1.09.1-1.59.17l-1.35.16-1 .12-1.14.08-1.4.09-1.28.07-.84.06a1.17 1.17 0 0 0-.51.13.26.26 0 0 0-.17.26.28.28 0 0 0 .19.25 1 1 0 0 0 .4 0 2.72 2.72 0 0 1 .77.07 5.25 5.25 0 0 1 .82.27 5.66 5.66 0 0 1 1.28.88 14 14 0 0 1 1.51 1.6l.86 1.1 1.2 1.59 1.38 1.86 1.4 1.89 1.24 1.71.92 1.28.44.65.52 1a6 6 0 0 1 .41 1.16 10.88 10.88 0 0 1 .26 1.64l.26 3zm29.22 3.71a15.62 15.62 0 0 0 1.94-.47 11.46 11.46 0 0 0 1.88-.81 9.59 9.59 0 0 0 1.72-1.24 7.55 7.55 0 0 0 1.72-2.31 7.25 7.25 0 0 0 .65-2.37 8.11 8.11 0 0 0-.08-2.27 9.34 9.34 0 0 0-.75-2.4 8.64 8.64 0 0 0-1.42-2.08 13.36 13.36 0 0 0-2.25-1.9 27.54 27.54 0 0 0-3.22-1.88l-1.16-.59a20 20 0 0 1-2.7-1.6 6 6 0 0 1-1.49-1.43 4.06 4.06 0 0 1-.61-1.55 3.76 3.76 0 0 1 .18-2 3.59 3.59 0 0 1 1.27-1.59 5.43 5.43 0 0 1 2.24-.9 5.75 5.75 0 0 1 2 0 4.12 4.12 0 0 1 1.39.48 5 5 0 0 1 .89.64 4.65 4.65 0 0 1 .76.87 5.7 5.7 0 0 1 .44.83 2.8 2.8 0 0 1 .17.55 1.26 1.26 0 0 0 .17.47.31.31 0 0 0 .31.12c.15 0 .24-.12.27-.31a2.85 2.85 0 0 0-.06-.86l-.37-2.31-.17-1.38-.09-.72a.31.31 0 0 0-.18-.26 1 1 0 0 0-.4-.09 15.79 15.79 0 0 0-2-.07 18.59 18.59 0 0 0-3 .31 11.32 11.32 0 0 0-3.37 1.12 8.3 8.3 0 0 0-2.42 1.9 6.69 6.69 0 0 0-1.33 2.49 6.77 6.77 0 0 0-.11 2.88 8.17 8.17 0 0 0 1 2.78 10 10 0 0 0 2.2 2.51 21.42 21.42 0 0 0 3.72 2.42l1.91 1a14.71 14.71 0 0 1 2.13 1.34 7 7 0 0 1 1.35 1.29 4.9 4.9 0 0 1 .76 1.28 5.44 5.44 0 0 1 .37 1.31 3.73 3.73 0 0 1 0 1.52 4.28 4.28 0 0 1-.67 1.5 4.57 4.57 0 0 1-1.36 1.25 6.27 6.27 0 0 1-2.09.76 6.75 6.75 0 0 1-2.24 0 4.81 4.81 0 0 1-2.05-.86 5.38 5.38 0 0 1-1.59-1.94 8 8 0 0 1-.4-1 4.65 4.65 0 0 1-.25-.86 1.32 1.32 0 0 0-.14-.41.3.3 0 0 0-.34-.15.38.38 0 0 0-.27.33 2.71 2.71 0 0 0 0 .7c0 .16 0 .4.08.72s.08.72.14 1.16l.2 1.43.24 1.51a3.25 3.25 0 0 0 .16.61.64.64 0 0 0 .27.33 1.27 1.27 0 0 0 .48.18 10.64 10.64 0 0 0 2.6.3 16.46 16.46 0 0 0 2.91-.29zm18.91-16.09l.92 3.23.71 2.65.43 2a3.77 3.77 0 0 1 .06 1.31 1.07 1.07 0 0 1-.59.77l-.53.26a5.76 5.76 0 0 1-.71.25.9.9 0 0 0-.42.21.22.22 0 0 0-.07.24.3.3 0 0 0 .26.22 1.37 1.37 0 0 0 .56-.07l1.18-.36 1.27-.4 1.17-.37.84-.26 1.36-.36 1.95-.51 2.29-.62a1.31 1.31 0 0 0 .46-.23.29.29 0 0 0 .11-.32.23.23 0 0 0-.2-.17.93.93 0 0 0-.45 0l-.61.16-.65.13-.6.09a1.77 1.77 0 0 1-.91-.06 1.4 1.4 0 0 1-.6-.48 3.15 3.15 0 0 1-.42-.8l-.66-1.9-.79-2.65-.93-3.22-1.8-6.28-.79-2.75-.55-1.93-.36-1.29-.23-.9-.17-.71a3.21 3.21 0 0 1-.08-1.51 1.41 1.41 0 0 1 .82-.9 5.64 5.64 0 0 1 .53-.24 3.81 3.81 0 0 1 .51-.17 1.09 1.09 0 0 0 .39-.19.31.31 0 0 0 .07-.33c0-.11-.12-.16-.26-.17a1.79 1.79 0 0 0-.57.1l-1.11.34-1.22.38-1.12.36q-.53.18-.87.27l-1 .26-1.24.32-1.3.33-1.16.31a2.24 2.24 0 0 0-.62.25c-.13.09-.18.18-.15.28a.32.32 0 0 0 .24.25 1 1 0 0 0 .43-.05l.67-.16a3.8 3.8 0 0 1 .66-.07 1.33 1.33 0 0 1 1.05.36 3 3 0 0 1 .73 1.29q.12.33.24.69l.28.89.38 1.29.55 1.91.79 2.76 1.8 6.28zm19.33-6.18l1.2 3 1 2.52c.31.75.49 1.38.63 1.89a8.85 8.85 0 0 1 .2 1 1.81 1.81 0 0 1 0 .78.87.87 0 0 1-.4.55 5 5 0 0 1-.5.31 6.21 6.21 0 0 1-.68.33 1.06 1.06 0 0 0-.4.24.26.26 0 0 0 0 .25.31.31 0 0 0 .29.2 1.53 1.53 0 0 0 .54-.13l1.13-.5 1.22-.53 1.13-.49.81-.33 1.64-.64 2-.71 2.59-1 3.41-1.33a10.8 10.8 0 0 0 1-.44 1 1 0 0 0 .46-.45 1.37 1.37 0 0 0 0-.75 6.5 6.5 0 0 0-.17-.84l-.29-1.15-.34-1.16-.29-.85a2.47 2.47 0 0 0-.21-.43.26.26 0 0 0-.32-.08.28.28 0 0 0-.2.21 1.09 1.09 0 0 0 0 .46 5.23 5.23 0 0 1 .14 1.86 2.45 2.45 0 0 1-.66 1.31 4.3 4.3 0 0 1-.92.71 11.61 11.61 0 0 1-1.11.57l-1 .44a15.54 15.54 0 0 1-2.17.74 3.14 3.14 0 0 1-1.41.06 1.75 1.75 0 0 1-1-.65 6.25 6.25 0 0 1-.76-1.37l-.35-.83-.47-1.14-.5-1.27-.48-1.19-.36-.91-1.09-2.72a.6.6 0 0 1-.07-.26.19.19 0 0 1 .13-.16l.77-.31 1.13-.44 1.24-.48 1.1-.41a5.94 5.94 0 0 1 .69-.23 3.32 3.32 0 0 1 1.13-.16 1.71 1.71 0 0 1 .79.21 1.68 1.68 0 0 1 .55.51 4.33 4.33 0 0 1 .36.62l.28.56a.44.44 0 0 0 .15.2.34.34 0 0 0 .28 0 .29.29 0 0 0 .18-.2.9.9 0 0 0 0-.28c0-.11-.07-.21-.11-.3a3.69 3.69 0 0 1-.13-.38l-.21-.63-.24-.72-.22-.63-.42-1.44-.21-.81-.1-.38a.39.39 0 0 0-.16-.19.28.28 0 0 0-.2 0 .37.37 0 0 0-.2.22c0 .11-.1.26-.17.45a1.31 1.31 0 0 1-.48.61 5.65 5.65 0 0 1-1 .57l-.79.36-1.25.52-1.4.58-1.25.52-.79.31a.22.22 0 0 1-.24 0 .84.84 0 0 1-.15-.27l-3.52-8.7a.57.57 0 0 1-.11-.33c0-.07.07-.12.15-.16l.72-.28 1.14-.43 1.28-.49 1.12-.4a6.65 6.65 0 0 1 .69-.23 5.82 5.82 0 0 1 1.41-.25 1.74 1.74 0 0 1 .85.14 1.58 1.58 0 0 1 .54.42 2.67 2.67 0 0 1 .32.4 2.91 2.91 0 0 1 .23.42l.16.33a.81.81 0 0 0 .2.33.29.29 0 0 0 .3 0 .32.32 0 0 0 .2-.23.57.57 0 0 0 0-.29 4.14 4.14 0 0 0-.14-.5l-.23-.7-.22-.69-.15-.45-.39-1.28a3.86 3.86 0 0 1-.15-.72 2.13 2.13 0 0 0-.09-.35.77.77 0 0 0-.13-.2.16.16 0 0 0-.2 0 1 1 0 0 0-.25.16l-.25.2-.55.34-.84.46-.78.33-1.49.61-1.86.76-1.89.77-1.6.65-1 .39-.94.35-1.26.46-1.37.53-1.43.56a2.06 2.06 0 0 0-.55.29.27.27 0 0 0-.08.32.28.28 0 0 0 .25.19 1.42 1.42 0 0 0 .46-.11l.76-.28a3.14 3.14 0 0 1 .62-.16 2.32 2.32 0 0 1 1 0 1.51 1.51 0 0 1 .7.45 4.35 4.35 0 0 1 .56.91l.3.66.37.86.52 1.24.75 1.85 1.07 2.66 2.45 6.05z" class="L R"/><defs ><path id="B" d="M250.2 187.12l2.46-2.2c13.9-12.6 24.13-24.11 38.79-36.39 9.26-7.75 8.24-9.31-1.65-1.71-14.84 11.39-22.29 19.41-37.93 35.92-1.84 1.94-3.58 4-5.26 6.09-2.55 3.17 0 1.56 3.59-1.71z"/></defs></svg>