<svg xmlns="http://www.w3.org/2000/svg" viewBox="0 0 527.04 527.04"><defs><style>.cls-1,.cls-3,.cls-5{fill:#fff;}.cls-1,.cls-10,.cls-2,.cls-3,.cls-4,.cls-6,.cls-7,.cls-8{stroke:#1d1d1b;}.cls-1,.cls-6,.cls-7,.cls-8{stroke-miterlimit:2.41;}.cls-1{stroke-width:6.23px;}.cls-10,.cls-11,.cls-2,.cls-8{fill:#1d1d1b;}.cls-2,.cls-3,.cls-4{stroke-linecap:round;stroke-linejoin:round;}.cls-2,.cls-3{stroke-width:3.46px;}.cls-11,.cls-2,.cls-3,.cls-4,.cls-5,.cls-9{fill-rule:evenodd;}.cls-4{fill:#e30613;stroke-width:3.46px;}.cls-6,.cls-7{fill:none;}.cls-6{stroke-width:2.12px;}.cls-7{stroke-width:2.12px;}.cls-8{stroke-width:0.57px;}.cls-10{font-size:37.11px;stroke-miterlimit:10;stroke-width:0.5px;font-family:Cambria;}</style></defs><g id="Page_1" data-name="Page 1"><g id="Warstwa_1-2" data-name="Warstwa 1"><circle class="cls-1" cx="263.52" cy="263.52" r="260.4"/><path class="cls-2" d="M424.73,158.66c-6.81-12.46-16.68-17.2-29-17.19l-53.51,0v141l53.46,0c12.27,0,22.15,4.73,29,17.19,7-10.62,17.19-17.14,28.76-17.14h53.33l.07-141H453.5c-11.57,0-21.76,6.52-28.77,17.15Z" transform="translate(-161.07 -27.47)"/><path class="cls-3" d="M424.47,149.63c-6.81-12.46-16.38-17.2-28.65-17.19l-53.5,0v141l53.46,0c12.27,0,21.88,4.7,28.69,17.17,7-10.63,17.46-17.13,29-17.13h53.33l.07-141H453.54c-11.56,0-22.06,6.52-29.07,17.14Z" transform="translate(-161.07 -27.47)"/><path class="cls-4" d="M342.3,292.57l.89,86.3c.62,22.57,18.84,74.32,81.26,89.9,62.43-15.58,81.56-67.33,82.18-89.9l-.48-86.3H453.21c-11.57,0-21.75,6.53-28.76,17.15-6.81-12.46-16.69-17.2-29-17.19l-53.19,0Z" transform="translate(-161.07 -27.47)"/><path class="cls-5" d="M443.38,425.35a5.6,5.6,0,0,1-3.29,7.7c-3.69,2-3,3.61-3.93,5.22-5.38-3.21,1.92-7.14-2.65-8.75-2.34-.55-4.62,2-5.27,4.36h-6.92c-.66-2.4-2.93-4.91-5.27-4.36-4.58,1.61,2.73,5.54-2.65,8.75-.88-1.61-.24-3.21-3.93-5.22a5.59,5.59,0,0,1-3.29-7.7c3.76-6,10.58-3.71,14.71,1.46-2.22-3.2-4.74-5.32-3.52-9.2a8.38,8.38,0,0,1,3.27-4.27c1.63-1.31,3.54-2.77,4.14-4.6.59,1.83,2.5,3.29,4.14,4.6a8.36,8.36,0,0,1,3.26,4.27c1.22,3.88-1.29,6-3.51,9.2,4.13-5.17,10.95-7.44,14.71-1.46Zm-15.26,9a1.41,1.41,0,1,1,0,2.8h-6.74a1.41,1.41,0,1,1,0-2.8Zm0,3.31c.42,3.48,3,6.19,5.09,3.86,2.05,3.41.07,5-1.79,5.22-1.48.21-2.76-1-3.7-2.6a5.57,5.57,0,0,1,.47,2c0,2.16-2.4,3.25-3.44,4.94-1-1.69-3.44-2.78-3.44-4.94a5.17,5.17,0,0,1,.47-2c-.95,1.63-2.23,2.81-3.7,2.6-1.86-.26-3.84-1.81-1.8-5.22,2.13,2.33,4.68-.38,5.1-3.86Z" transform="translate(-161.07 -27.47)"/><path class="cls-5" d="M466.53,380.08a5.61,5.61,0,0,1-3.29,7.71c-3.69,2-3.05,3.61-3.93,5.21-5.38-3.21,1.92-7.14-2.65-8.74-2.34-.55-4.62,2-5.27,4.35h-6.92c-.66-2.39-2.93-4.9-5.27-4.35-4.58,1.6,2.73,5.53-2.65,8.74-.88-1.6-.24-3.21-3.93-5.21a5.6,5.6,0,0,1-3.29-7.71c3.76-6,10.58-3.71,14.71,1.46-2.22-3.2-4.74-5.32-3.52-9.19a8.37,8.37,0,0,1,3.26-4.27c1.64-1.31,3.55-2.78,4.15-4.61.59,1.83,2.5,3.3,4.14,4.61a8.32,8.32,0,0,1,3.26,4.27c1.22,3.87-1.29,6-3.51,9.19,4.13-5.17,10.95-7.44,14.71-1.46Zm-15.26,9a1.42,1.42,0,1,1,0,2.81h-6.74a1.42,1.42,0,1,1,0-2.81Zm0,3.32c.42,3.47,3,6.19,5.09,3.85,2.05,3.42.07,5-1.79,5.22-1.48.21-2.76-1-3.7-2.6a5.57,5.57,0,0,1,.47,2c0,2.17-2.4,3.26-3.44,4.94-1.05-1.68-3.44-2.77-3.44-4.94a5.17,5.17,0,0,1,.47-2c-.95,1.63-2.23,2.81-3.7,2.6-1.86-.26-3.84-1.8-1.8-5.22,2.13,2.34,4.68-.38,5.1-3.85Z" transform="translate(-161.07 -27.47)"/><path class="cls-5" d="M420.23,380.08a5.61,5.61,0,0,1-3.29,7.71c-3.69,2-3.05,3.61-3.93,5.21-5.38-3.21,1.92-7.14-2.65-8.74-2.34-.55-4.62,2-5.27,4.35h-6.92c-.66-2.39-2.93-4.9-5.27-4.35-4.58,1.6,2.73,5.53-2.65,8.74-.88-1.6-.24-3.21-3.93-5.21a5.6,5.6,0,0,1-3.29-7.71c3.76-6,10.57-3.71,14.71,1.46-2.22-3.2-4.74-5.32-3.52-9.19a8.37,8.37,0,0,1,3.26-4.27c1.64-1.31,3.55-2.78,4.15-4.61.59,1.83,2.5,3.3,4.14,4.61a8.37,8.37,0,0,1,3.26,4.27c1.22,3.87-1.29,6-3.51,9.19,4.13-5.17,11-7.44,14.71-1.46Zm-15.26,9a1.42,1.42,0,1,1,0,2.81h-6.74a1.42,1.42,0,1,1,0-2.81Zm0,3.32c.42,3.47,3,6.19,5.09,3.85,2.05,3.42.06,5-1.79,5.22-1.48.21-2.76-1-3.7-2.6a5.57,5.57,0,0,1,.47,2c0,2.17-2.4,3.26-3.44,4.94-1.05-1.68-3.44-2.77-3.44-4.94a5.17,5.17,0,0,1,.47-2c-1,1.63-2.23,2.81-3.7,2.6-1.86-.26-3.85-1.8-1.8-5.22,2.12,2.34,4.68-.38,5.09-3.85Z" transform="translate(-161.07 -27.47)"/><path class="cls-5" d="M489.68,334.5a5.59,5.59,0,0,1-3.29,7.7c-3.69,2-3.05,3.61-3.93,5.22-5.38-3.21,1.93-7.14-2.65-8.75-2.34-.55-4.61,2-5.27,4.36h-6.92c-.65-2.4-2.93-4.91-5.27-4.36-4.57,1.61,2.73,5.54-2.65,8.75-.88-1.61-.24-3.21-3.93-5.22a5.6,5.6,0,0,1-3.29-7.7c3.76-6,10.58-3.71,14.71,1.45-2.22-3.19-4.73-5.31-3.51-9.19a8.36,8.36,0,0,1,3.26-4.27c1.64-1.31,3.55-2.77,4.14-4.6.6,1.83,2.51,3.29,4.14,4.6a8.38,8.38,0,0,1,3.27,4.27c1.22,3.88-1.3,6-3.52,9.19,4.13-5.16,10.95-7.43,14.71-1.45Zm-15.25,9a1.41,1.41,0,1,1,0,2.8h-6.74a1.41,1.41,0,1,1,0-2.8Zm0,3.31c.41,3.48,3,6.19,5.09,3.86,2,3.41.06,5-1.8,5.22-1.47.21-2.75-1-3.7-2.61a5.21,5.21,0,0,1,.47,2c0,2.16-2.4,3.25-3.44,4.94-1-1.69-3.44-2.78-3.44-4.94a5.61,5.61,0,0,1,.47-2c-.94,1.64-2.22,2.82-3.7,2.61-1.86-.27-3.84-1.81-1.79-5.22,2.12,2.33,4.67-.38,5.09-3.86Z" transform="translate(-161.07 -27.47)"/><path class="cls-5" d="M443.38,334.5a5.6,5.6,0,0,1-3.29,7.7c-3.69,2-3,3.61-3.93,5.22-5.38-3.21,1.92-7.14-2.65-8.75-2.34-.55-4.62,2-5.27,4.36h-6.92c-.66-2.4-2.93-4.91-5.27-4.36-4.58,1.61,2.73,5.54-2.65,8.75-.88-1.61-.24-3.21-3.93-5.22a5.59,5.59,0,0,1-3.29-7.7c3.76-6,10.58-3.71,14.71,1.45-2.22-3.19-4.74-5.31-3.52-9.19a8.38,8.38,0,0,1,3.27-4.27c1.63-1.31,3.54-2.77,4.14-4.6.59,1.83,2.5,3.29,4.14,4.6a8.36,8.36,0,0,1,3.26,4.27c1.22,3.88-1.29,6-3.51,9.19,4.13-5.16,10.95-7.43,14.71-1.45Zm-15.26,9a1.41,1.41,0,1,1,0,2.8h-6.74a1.41,1.41,0,1,1,0-2.8Zm0,3.31c.42,3.48,3,6.19,5.09,3.86,2.05,3.41.07,5-1.79,5.22-1.48.21-2.76-1-3.7-2.61a5.61,5.61,0,0,1,.47,2c0,2.16-2.4,3.25-3.44,4.94-1-1.69-3.44-2.78-3.44-4.94a5.21,5.21,0,0,1,.47-2c-.95,1.64-2.23,2.82-3.7,2.61-1.86-.27-3.84-1.81-1.8-5.22,2.13,2.33,4.68-.38,5.1-3.86Z" transform="translate(-161.07 -27.47)"/><path class="cls-5" d="M397.08,334.5a5.6,5.6,0,0,1-3.3,7.7c-3.69,2-3,3.61-3.93,5.22-5.37-3.21,1.93-7.14-2.65-8.75-2.33-.55-4.61,2-5.27,4.36H375c-.66-2.4-2.94-4.91-5.28-4.36-4.57,1.61,2.73,5.54-2.64,8.75-.89-1.61-.24-3.21-3.94-5.22a5.6,5.6,0,0,1-3.29-7.7c3.77-6,10.58-3.71,14.71,1.45-2.22-3.19-4.73-5.31-3.51-9.19a8.42,8.42,0,0,1,3.26-4.27c1.64-1.31,3.55-2.77,4.14-4.6.6,1.83,2.51,3.29,4.15,4.6a8.42,8.42,0,0,1,3.26,4.27c1.22,3.88-1.29,6-3.52,9.19,4.14-5.16,10.95-7.43,14.72-1.45Zm-15.26,9a1.41,1.41,0,1,1,0,2.8h-6.73a1.41,1.41,0,1,1,0-2.8Zm0,3.31c.41,3.48,3,6.19,5.09,3.86,2.05,3.41.06,5-1.8,5.22-1.47.21-2.75-1-3.69-2.61a5.35,5.35,0,0,1,.46,2c0,2.16-2.39,3.25-3.44,4.94-1-1.69-3.44-2.78-3.44-4.94a5.61,5.61,0,0,1,.47-2c-.94,1.64-2.22,2.82-3.7,2.61-1.85-.27-3.84-1.81-1.79-5.22,2.12,2.33,4.68-.38,5.09-3.86Z" transform="translate(-161.07 -27.47)"/><circle class="cls-6" cx="263.52" cy="263.52" r="195.44"/><circle class="cls-7" cx="263.52" cy="263.52" r="252.18"/><circle class="cls-8" cx="144.84" cy="455.93" r="4.41"/><circle class="cls-8" cx="377.95" cy="455.93" r="4.41"/><path class="cls-5" d="M411.27,214.59l2.46-2.2c13.9-12.6,24.13-24.11,38.79-36.39,9.26-7.75,8.24-9.31-1.65-1.71-14.84,11.39-22.29,19.41-37.93,35.92-1.84,1.94-3.58,4-5.26,6.09-2.55,3.17,0,1.56,3.59-1.71Z" transform="translate(-161.07 -27.47)"/><path class="cls-9" d="M378.94,185.76,397,165.94l3.44,3.14c-3.65,5.31-3.7,9.62.23,13.54l2.37,2.36,52.06,44.86,15.74,14.29-7.45,8.17L447.75,238l-49.27-48.12a18.37,18.37,0,0,0-2.32-2.08c-4.63-3.32-9.2-2.29-13.78,1.15l-3.44-3.15Zm-11.11-16.65c-.64-5.44-.39-8.53,1.38-10.33s5-2.08,10.27-1.95l8.08,16.72-2,2.2-17.72-6.64Zm9.46,15.69-1.14-.32c-2.81-.79-6.68-2.06-8.56-3.75s-1.63-3.95,3.4-6.28l1.32-.58.16-.07L383.55,178l-6.26,6.85Zm18.6-20.38c-.13-.35-.29-.74-.46-1.15-1.09-2.67-2.77-6.34-4.67-8s-4.15-1.17-6,4l-.42,1.28,5.2,10.78,6.33-6.94Zm77.77,82.23h0l9.18,10.41L477.42,263l-11.13-8.1-.1-.09,7.47-8.18Z" transform="translate(-161.07 -27.47)"/><path class="cls-9" d="M447.35,169.9c-9.67,6.55-18.07,15.72-26.67,23.63l-2.91,3.08a69.41,69.41,0,0,0-8.33,9.38q-5.43,7.11-10.83,14.39c-1,1.44-2,2.91-3,4.39-.58.79-.73.54-1.48.36l-.18.24h0a2.07,2.07,0,0,1-.17.24h0a1.5,1.5,0,0,1-.15.23c0,.07-.09.15-.15.22v0c0,.08-.09.14-.13.21s0,0,0,0a1.2,1.2,0,0,1-.13.21s0,0,0,0a.62.62,0,0,1-.12.19s0,0,0,0a.71.71,0,0,1-.11.17s0,0,0,0l-.1.18h0a.91.91,0,0,1-.09.17s0,0,0,0a.56.56,0,0,1-.1.15s0,0,0,0h0a.77.77,0,0,1-.1.18.39.39,0,0,1-.08.14s0,0,0,0l-.07.14a1.39,1.39,0,0,1-.06.13s0,0,0,0a.07.07,0,0,1,0,.05s0,.08-.06.09h0a5.16,5.16,0,0,0-.59,3.06v0a.11.11,0,0,1,0,.05h0c0,.25.05.5.08.79v0a.08.08,0,0,1,0,0h0c0,.14,0,.28,0,.45h0v0a8.19,8.19,0,0,1,0,1.12h0v0h0a.24.24,0,0,1-.06.09c-.59-.63-1.19-1.25-1.8-1.87a.08.08,0,0,1-.07,0h0l-.06,0h-.25s0,0,0,0l0,0s0,0,0,0h0s0,0,0,0h0s0,0,0,0a.15.15,0,0,0,0,.07s0,0,0,0h0v0h0v0h0a2,2,0,0,0,.13.67h0s0,0,0,.06h0a.81.81,0,0,0,0,.11,5.4,5.4,0,0,1,.3,2.84v0a.13.13,0,0,1,0,.08c-.9,1.06-1.82,2.08-2.73,3.11l-18.71,21.13c-5,5.54,1.89,1.09,4.74-.32a15.05,15.05,0,0,0,2.71-1.81c3.12-3.44,11.19-12.89,15.6-16.59a9.42,9.42,0,0,1,1-.67c2.05-.11,5.38-.7,6.59-1.57.42-.5.82-1,1.22-1.51,7.47-.6,3.11-.66,2.25-2,2.88.93,9.84-2.6,11.87-5.14l2.29-3.12c-3.14.38-3.23,6.6-10.43,2.7-.51-.29-1-.55-1.55-.87-1-.63,2.34-1.38,2.71-1.52a27.9,27.9,0,0,1,4.46-1.25,23.65,23.65,0,0,0,8.74-3.51,49,49,0,0,0,8.6-5.65c9.4-7.83,24.74-23.89,35.89-37.82q.82-1,1.62-2c.85-1.09-6-.34-5.25-1.39,1-1.36,8.26-2.42,10.59-5.79l1.21-1.75c10.32-15.36,9-22.37-25.76,1.15Z" transform="translate(-161.07 -27.47)"/><path class="cls-9" d="M376.16,251.52l-7.87,8.9c-5,5.54,1.89,1.09,4.74-.32a15.05,15.05,0,0,0,2.71-1.81c1.75-1.93,5.06-5.85,8.46-9.45l-8,2.68Z" transform="translate(-161.07 -27.47)"/><path class="cls-5" d="M411.27,214.59l2.46-2.2c13.9-12.6,24.13-24.11,38.79-36.39,9.26-7.75,8.24-9.31-1.65-1.71-14.84,11.39-22.29,19.41-37.93,35.92-1.84,1.94-3.58,4-5.26,6.09-2.55,3.17,0,1.56,3.59-1.71Z" transform="translate(-161.07 -27.47)"/><text class="cls-10" transform="translate(123.87 415.52) rotate(-134.51)">P</text><text class="cls-10" transform="matrix(-0.61, -0.79, 0.79, -0.61, 106.84, 398)">A</text><text class="cls-10" transform="matrix(-0.49, -0.87, 0.87, -0.49, 89.93, 375.52)">Ń</text><text class="cls-10" transform="matrix(-0.37, -0.93, 0.93, -0.37, 75.38, 348.54)">S</text><text class="cls-10" transform="translate(66.74 326.39) rotate(-104.69)">T</text><text class="cls-10" transform="translate(59.95 301.08) rotate(-95.73)">W</text><text class="cls-10" transform="matrix(0.06, -1, 1, 0.06, 56.85, 263.5)">O</text><text class="cls-10" transform="translate(58.32 235.42) rotate(-77.65)">W</text><text class="cls-10" transform="matrix(0.36, -0.93, 0.93, 0.36, 66.55, 200.37)">A</text><text class="cls-10" transform="matrix(0.45, -0.89, 0.89, 0.45, 77.01, 174.63)"> </text><text class="cls-10" transform="translate(90.46 150.08) rotate(-53.64)">A</text><text class="cls-10" transform="translate(107.52 127.49) rotate(-45.81)">K</text><text class="cls-10" transform="matrix(0.79, -0.62, 0.62, 0.79, 127.69, 107.27)">A</text><text class="cls-10" transform="translate(150.09 90.16) rotate(-29.99)">D</text><text class="cls-10" transform="matrix(0.93, -0.38, 0.38, 0.93, 176.07, 75.69)">E</text><text class="cls-10" transform="translate(200.14 65.91) rotate(-13.66)">M</text><text class="cls-10" transform="translate(235.13 58.39) rotate(-6.23)">I</text><text class="cls-10" transform="translate(252.99 56.34) rotate(0.79)">A</text><text class="cls-10" transform="translate(281.29 57.18) rotate(5.89)"> </text><text class="cls-10" transform="translate(308.76 60.98) rotate(15.99)">N</text><text class="cls-10" transform="matrix(0.91, 0.41, -0.41, 0.91, 337.14, 69.51)">A</text><text class="cls-10" transform="translate(362.16 80.93) rotate(31.74)">U</text><text class="cls-10" transform="matrix(0.77, 0.64, -0.64, 0.77, 386.74, 96.59)">K</text><text class="cls-10" transform="matrix(0.7, 0.71, -0.71, 0.7, 407.93, 114.96)"> </text><text class="cls-10" transform="matrix(0.58, 0.82, -0.82, 0.58, 427.08, 136.07)">S</text><text class="cls-10" transform="matrix(0.47, 0.88, -0.88, 0.47, 440.69, 155.6)">T</text><text class="cls-10" transform="matrix(0.35, 0.94, -0.94, 0.35, 453.16, 179.26)">O</text><text class="cls-10" transform="translate(463.08 207.3) rotate(76.95)">S</text><text class="cls-10" transform="matrix(0.1, 1, -1, 0.1, 468.32, 230.67)">O</text><text class="cls-10" transform="translate(471.14 258.75) rotate(93.45)">W</text><text class="cls-10" transform="matrix(-0.21, 0.98, -0.98, -0.21, 468.43, 294.71)">A</text><text class="cls-10" transform="translate(462.38 322.11) rotate(110.04)">N</text><text class="cls-10" transform="translate(451.5 350.47) rotate(117.95)">Y</text><text class="cls-10" transform="translate(439.26 372.94) rotate(125)">C</text><text class="cls-10" transform="translate(424.12 394.21) rotate(132.82)">H</text><path class="cls-11" d="M340.35,513.18a6.62,6.62,0,0,0,0,1.12.5.5,0,0,0,.31.45.49.49,0,0,0,.42,0,2.64,2.64,0,0,0,.56-.44c.24-.23.54-.54.92-.94s.87-.93,1.47-1.61,1.27-1.44,2-2.29,1.5-1.75,2.28-2.68l2.33-2.77,2.12-2.54,1.67-2,1-1.19.07,0,1.24,20.09a10.88,10.88,0,0,0,.15,1.55c.07.32.18.5.35.54a.5.5,0,0,0,.43,0,1.7,1.7,0,0,0,.48-.42,8.75,8.75,0,0,0,.67-.85l1.74-2.29c.65-.86,1.34-1.76,2.07-2.74l2.28-3c.77-1,1.55-2,2.32-3s1.51-2,2.22-2.88,1.37-1.77,2-2.54,1.13-1.43,1.59-2l1.26-1.56a7.65,7.65,0,0,1,1-1.07,1.57,1.57,0,0,1,.94-.41,2.62,2.62,0,0,1,.68.07,5.79,5.79,0,0,1,.61.17.72.72,0,0,0,.39.05.3.3,0,0,0,.22-.23.25.25,0,0,0-.09-.28,1.49,1.49,0,0,0-.44-.22l-.91-.29-.91-.27c-.28-.09-.52-.16-.73-.21l-.4-.12-.66-.26-1.26-.49L371.1,495a2.07,2.07,0,0,0-.63-.14.27.27,0,0,0-.29.18.3.3,0,0,0,.09.3,1.14,1.14,0,0,0,.4.22,3.4,3.4,0,0,1,1,.51,1.05,1.05,0,0,1,.37.55,1.14,1.14,0,0,1-.05.58,5.52,5.52,0,0,1-.39.87c-.18.32-.4.67-.66,1l-1.56,2.18-1.91,2.64-2,2.82-1.92,2.68-1.61,2.26-1.06,1.53-.11,0-1.2-20.2c0-.42,0-.78-.07-1.06a2.41,2.41,0,0,0-.11-.65.46.46,0,0,0-.27-.29.51.51,0,0,0-.5.12,4.34,4.34,0,0,0-.82.84l-13.11,16-.1,0c0-.32,0-.82,0-1.47s0-1.43.07-2.32.06-1.82.1-2.82.07-2,.11-3,.08-2,.12-2.86.08-1.71.11-2.4.07-1.22.1-1.59c0-.86.1-1.59.15-2.2a5.74,5.74,0,0,1,.18-1.27,1.2,1.2,0,0,1,.24-.45.56.56,0,0,1,.41-.18,1.07,1.07,0,0,1,.47,0,3,3,0,0,1,.45.14,1.32,1.32,0,0,0,.47.1.28.28,0,0,0,.27-.2c.08-.21-.13-.4-.62-.57-.69-.24-1.31-.44-1.86-.61l-1.37-.42-.7-.21c-.09,0-.25-.09-.51-.19l-.94-.36-1.23-.47-1.36-.48a1.54,1.54,0,0,0-.59-.13.26.26,0,0,0-.29.18.28.28,0,0,0,.06.31,1.08,1.08,0,0,0,.39.2,3.41,3.41,0,0,1,.42.16c.16.09.32.17.48.28a2,2,0,0,1,.4.36,2.58,2.58,0,0,1,.37,1.12,12.16,12.16,0,0,1,.07,1.81l-.23,24.85Zm59.69-5.1h.11l.71.93,1.3,1.7c.52.68,1.11,1.43,1.75,2.25s1.32,1.68,2,2.57l2.18,2.64q1.33,1.56,2.74,3.26t2.75,3.3c.9,1.08,1.74,2.07,2.51,3s1.42,1.67,2,2.29a4.93,4.93,0,0,0,.58.62,1.16,1.16,0,0,0,.6.31.39.39,0,0,0,.39-.24,2.25,2.25,0,0,0,.19-.87l2.45-23.29a10,10,0,0,1,.29-1.66,2.18,2.18,0,0,1,.5-.95,1.62,1.62,0,0,1,.85-.41,3.3,3.3,0,0,1,.6-.05l.52,0c.45,0,.68-.05.7-.27a.31.31,0,0,0-.22-.3,2.22,2.22,0,0,0-.6-.11c-.61-.05-1.16-.09-1.66-.11l-1.25-.06-.73,0-1.07-.13-1.55-.18c-.58-.07-1.19-.14-1.84-.2a2.63,2.63,0,0,0-.69,0c-.18,0-.28.11-.3.25a.28.28,0,0,0,.11.26,1,1,0,0,0,.45.13l.62.06a6,6,0,0,1,.7.11,3.21,3.21,0,0,1,.62.22,1.61,1.61,0,0,1,.67.59,2.33,2.33,0,0,1,.31,1,10.84,10.84,0,0,1,0,1.8l-1.08,16.63-.19,0-.77-.93-1.42-1.78-1.77-2.22L412.25,516,410.66,514c-1-1.17-2-2.35-2.94-3.53s-1.88-2.3-2.74-3.37-1.65-2-2.32-2.89l-1.66-2.1-.77-1c-.28-.36-.5-.66-.69-.89a.89.89,0,0,0-.57-.37.41.41,0,0,0-.41.31,3.6,3.6,0,0,0-.19.9L396.13,523c-.1,1.06-.21,1.91-.32,2.54a4.13,4.13,0,0,1-.46,1.4,1.14,1.14,0,0,1-.77.54,4.74,4.74,0,0,1-.86.08l-.82,0a1,1,0,0,0-.44,0,.22.22,0,0,0-.18.21.31.31,0,0,0,.2.33,2,2,0,0,0,.58.12l1.82.12,1.43.08.76,0,1.65.2c.75.1,1.73.2,2.92.32a2.45,2.45,0,0,0,.63,0,.32.32,0,0,0,.25-.28.23.23,0,0,0-.14-.24,1.19,1.19,0,0,0-.46-.11,8.45,8.45,0,0,1-.94-.13,4.11,4.11,0,0,1-1-.3,1.26,1.26,0,0,1-.6-.59,3.7,3.7,0,0,1-.33-1.32,14.5,14.5,0,0,1,0-2.3l1-15.57Zm39.83,15.41c0,.21,0,.5.07.88s.06.82.09,1.31.05,1,.05,1.52a3.43,3.43,0,0,1-.2,1.39,1.17,1.17,0,0,1-.76.74,5.71,5.71,0,0,1-.57.16l-.72.11a.83.83,0,0,0-.44.12.22.22,0,0,0-.12.22.3.3,0,0,0,.24.28,1.87,1.87,0,0,0,.6,0l1.17-.12,1.31-.15,1.22-.14.92-.1,1.39-.09,2-.13c.73,0,1.5-.1,2.28-.17a1.71,1.71,0,0,0,.56-.13.33.33,0,0,0,.19-.3.25.25,0,0,0-.16-.21,1,1,0,0,0-.46,0,5.41,5.41,0,0,1-.59,0h-.67l-.6,0a1.61,1.61,0,0,1-.9-.29,1.51,1.51,0,0,1-.53-.66,3.37,3.37,0,0,1-.27-1q-.12-.78-.21-1.5c-.05-.49-.1-.93-.14-1.31s-.06-.67-.08-.87l-.27-3c0-.41-.06-.81-.08-1.21a7.15,7.15,0,0,1,0-1.22,6.79,6.79,0,0,1,.28-1.32,10.47,10.47,0,0,1,.44-1.12c.21-.51.48-1.1.79-1.78s.65-1.4,1-2.16.73-1.53,1.11-2.3.74-1.48,1.09-2.16.66-1.26.93-1.75a11.06,11.06,0,0,1,.65-1.1q.35-.54.63-.9a5,5,0,0,1,.56-.62,3.61,3.61,0,0,1,.65-.47,3.92,3.92,0,0,1,.85-.41,3.47,3.47,0,0,1,.73-.18,1.11,1.11,0,0,0,.5-.13.29.29,0,0,0,.17-.3.24.24,0,0,0-.2-.22,1.53,1.53,0,0,0-.49,0l-.8.08-1.13.14-1.15.14-.86.09c-.54,0-1.1.07-1.69.09s-1.19.06-1.8.11a1,1,0,0,0-.47.11.25.25,0,0,0-.13.27c0,.11.09.18.23.23l.47.09a.94.94,0,0,1,.66.32,1,1,0,0,1,.2.53,3.23,3.23,0,0,1,0,.85,7.31,7.31,0,0,1-.3,1.12c-.07.18-.19.48-.38.91s-.41,1-.68,1.56-.55,1.25-.86,1.93-.61,1.36-.91,2.05l-.85,1.89c-.26.59-.48,1.09-.65,1.49s-.28.68-.33.82l-.58-.84c-.29-.41-.64-.9-1-1.49l-1.32-1.88-1.41-2-1.31-1.9c-.41-.59-.75-1.09-1-1.51s-.47-.7-.56-.86-.28-.48-.38-.69a1.46,1.46,0,0,1-.17-.53.6.6,0,0,1,.1-.43.61.61,0,0,1,.36-.28,6.06,6.06,0,0,0,.6-.23c.12-.07.18-.14.17-.25s-.21-.32-.58-.28c-.55,0-1.09.1-1.59.17l-1.35.16c-.41.06-.74.1-1,.12s-.69.06-1.14.08l-1.4.09-1.28.07-.84.06a1.17,1.17,0,0,0-.51.13.26.26,0,0,0-.17.26.28.28,0,0,0,.19.25,1,1,0,0,0,.4,0,2.72,2.72,0,0,1,.77.07,5.25,5.25,0,0,1,.82.27,5.66,5.66,0,0,1,1.28.88,14,14,0,0,1,1.51,1.6l.86,1.1c.35.46.76,1,1.2,1.59s.91,1.21,1.38,1.86.95,1.27,1.4,1.89l1.24,1.71c.38.52.69.94.92,1.28s.39.56.44.65c.19.33.37.67.52,1a6,6,0,0,1,.41,1.16,10.88,10.88,0,0,1,.26,1.64l.26,3Zm29.22,3.71a15.62,15.62,0,0,0,1.94-.47,11.46,11.46,0,0,0,1.88-.81,9.59,9.59,0,0,0,1.72-1.24,7.55,7.55,0,0,0,1.72-2.31A7.25,7.25,0,0,0,477,520a8.11,8.11,0,0,0-.08-2.27,9.34,9.34,0,0,0-.75-2.4,8.64,8.64,0,0,0-1.42-2.08,13.36,13.36,0,0,0-2.25-1.9,27.54,27.54,0,0,0-3.22-1.88l-1.16-.59a20,20,0,0,1-2.7-1.6,6,6,0,0,1-1.49-1.43,4.06,4.06,0,0,1-.61-1.55,3.76,3.76,0,0,1,.18-2,3.59,3.59,0,0,1,1.27-1.59,5.43,5.43,0,0,1,2.24-.9,5.75,5.75,0,0,1,2,0,4.12,4.12,0,0,1,1.39.48,5,5,0,0,1,.89.64,4.65,4.65,0,0,1,.76.87,5.7,5.7,0,0,1,.44.83,2.8,2.8,0,0,1,.17.55,1.26,1.26,0,0,0,.17.47.31.31,0,0,0,.31.12c.15,0,.24-.12.27-.31a2.85,2.85,0,0,0-.06-.86c-.16-.94-.29-1.71-.37-2.31s-.13-1.05-.17-1.38-.06-.57-.09-.72a.31.31,0,0,0-.18-.26,1,1,0,0,0-.4-.09,15.79,15.79,0,0,0-2-.07,18.59,18.59,0,0,0-3,.31,11.32,11.32,0,0,0-3.37,1.12,8.3,8.3,0,0,0-2.42,1.9,6.69,6.69,0,0,0-1.33,2.49,6.77,6.77,0,0,0-.11,2.88,8.17,8.17,0,0,0,1,2.78,10,10,0,0,0,2.2,2.51,21.42,21.42,0,0,0,3.72,2.42l1.91,1a14.71,14.71,0,0,1,2.13,1.34,7,7,0,0,1,1.35,1.29,4.9,4.9,0,0,1,.76,1.28,5.44,5.44,0,0,1,.37,1.31,3.73,3.73,0,0,1,0,1.52,4.28,4.28,0,0,1-.67,1.5,4.57,4.57,0,0,1-1.36,1.25,6.27,6.27,0,0,1-2.09.76,6.75,6.75,0,0,1-2.24,0,4.81,4.81,0,0,1-2.05-.86,5.38,5.38,0,0,1-1.59-1.94c-.14-.3-.28-.62-.4-1a4.65,4.65,0,0,1-.25-.86,1.32,1.32,0,0,0-.14-.41.3.3,0,0,0-.34-.15.38.38,0,0,0-.27.33,2.71,2.71,0,0,0,0,.7c0,.16,0,.4.08.72s.08.72.14,1.16.12.92.2,1.43.15,1,.24,1.51a3.25,3.25,0,0,0,.16.61.64.64,0,0,0,.27.33,1.27,1.27,0,0,0,.48.18,10.64,10.64,0,0,0,2.6.3,16.46,16.46,0,0,0,2.91-.29ZM488,511.11c.34,1.16.64,2.23.92,3.23s.51,1.87.71,2.65.34,1.43.43,2a3.77,3.77,0,0,1,.06,1.31,1.07,1.07,0,0,1-.59.77c-.15.08-.32.17-.53.26a5.76,5.76,0,0,1-.71.25.9.9,0,0,0-.42.21.22.22,0,0,0-.07.24.3.3,0,0,0,.26.22,1.37,1.37,0,0,0,.56-.07c.36-.1.76-.22,1.18-.36l1.27-.4,1.17-.37c.35-.12.63-.2.84-.26s.78-.22,1.36-.36l1.95-.51,2.29-.62a1.31,1.31,0,0,0,.46-.23.29.29,0,0,0,.11-.32.23.23,0,0,0-.2-.17.93.93,0,0,0-.45,0c-.19.06-.38.11-.61.16l-.65.13-.6.09a1.77,1.77,0,0,1-.91-.06,1.4,1.4,0,0,1-.6-.48,3.15,3.15,0,0,1-.42-.8c-.2-.5-.41-1.13-.66-1.9s-.5-1.65-.79-2.65-.6-2.06-.93-3.22l-1.8-6.28c-.31-1.07-.58-2-.79-2.75s-.41-1.41-.55-1.93-.26-.94-.36-1.29-.17-.65-.23-.9-.12-.48-.17-.71a3.21,3.21,0,0,1-.08-1.51,1.41,1.41,0,0,1,.82-.9,5.64,5.64,0,0,1,.53-.24,3.81,3.81,0,0,1,.51-.17,1.09,1.09,0,0,0,.39-.19.31.31,0,0,0,.07-.33c0-.11-.12-.16-.26-.17a1.79,1.79,0,0,0-.57.1c-.34.09-.71.21-1.11.34l-1.22.38-1.12.36q-.53.18-.87.27c-.26.08-.59.16-1,.26l-1.24.32c-.44.11-.87.21-1.3.33l-1.16.31a2.24,2.24,0,0,0-.62.25c-.13.09-.18.18-.15.28a.32.32,0,0,0,.24.25,1,1,0,0,0,.43-.05c.22-.06.44-.12.67-.16a3.8,3.8,0,0,1,.66-.07,1.33,1.33,0,0,1,1.05.36,3,3,0,0,1,.73,1.29q.12.33.24.69c.08.25.18.54.28.89s.23.77.38,1.29.33,1.15.55,1.91.49,1.69.79,2.76l1.8,6.28Z" transform="translate(-161.07 -27.47)"/><path class="cls-11" d="M507.33,504.93l1.2,3c.37.94.69,1.77,1,2.52s.49,1.38.63,1.89a8.85,8.85,0,0,1,.2,1,1.81,1.81,0,0,1,0,.78.87.87,0,0,1-.4.55,5,5,0,0,1-.5.31,6.21,6.21,0,0,1-.68.33,1.06,1.06,0,0,0-.4.24.26.26,0,0,0,0,.25.31.31,0,0,0,.29.2,1.53,1.53,0,0,0,.54-.13c.35-.15.73-.31,1.13-.5s.81-.37,1.22-.53l1.13-.49.81-.33c.51-.21,1-.42,1.64-.64l2-.71,2.59-1c1-.37,2.12-.81,3.41-1.33a10.8,10.8,0,0,0,1-.44,1,1,0,0,0,.46-.45,1.37,1.37,0,0,0,0-.75,6.5,6.5,0,0,0-.17-.84c-.08-.36-.18-.74-.29-1.15s-.23-.8-.34-1.16-.21-.65-.29-.85a2.47,2.47,0,0,0-.21-.43.26.26,0,0,0-.32-.08.28.28,0,0,0-.2.21,1.09,1.09,0,0,0,0,.46,5.23,5.23,0,0,1,.14,1.86,2.45,2.45,0,0,1-.66,1.31,4.3,4.3,0,0,1-.92.71,11.61,11.61,0,0,1-1.11.57l-1,.44a15.54,15.54,0,0,1-2.17.74,3.14,3.14,0,0,1-1.41.06,1.75,1.75,0,0,1-1-.65,6.25,6.25,0,0,1-.76-1.37c-.09-.21-.21-.48-.35-.83l-.47-1.14c-.16-.42-.33-.84-.5-1.27l-.48-1.19c-.14-.37-.26-.67-.36-.91l-1.09-2.72a.6.6,0,0,1-.07-.26.19.19,0,0,1,.13-.16l.77-.31,1.13-.44,1.24-.48,1.1-.41a5.94,5.94,0,0,1,.69-.23,3.32,3.32,0,0,1,1.13-.16,1.71,1.71,0,0,1,.79.21,1.68,1.68,0,0,1,.55.51,4.33,4.33,0,0,1,.36.62l.28.56a.44.44,0,0,0,.15.2.34.34,0,0,0,.28,0,.29.29,0,0,0,.18-.2.9.9,0,0,0,0-.28c0-.11-.07-.21-.11-.3a3.69,3.69,0,0,1-.13-.38l-.21-.63c-.09-.24-.16-.48-.24-.72s-.15-.45-.22-.63c-.18-.6-.33-1.08-.42-1.44s-.17-.64-.21-.81-.08-.31-.1-.38a.39.39,0,0,0-.16-.19.28.28,0,0,0-.2,0,.37.37,0,0,0-.2.22c0,.11-.1.26-.17.45a1.31,1.31,0,0,1-.48.61,5.65,5.65,0,0,1-1,.57l-.79.36c-.36.15-.78.34-1.25.52l-1.4.58-1.25.52-.79.31a.22.22,0,0,1-.24,0,.84.84,0,0,1-.15-.27l-3.52-8.7A.57.57,0,0,1,506,489c0-.07.07-.12.15-.16l.72-.28,1.14-.43,1.28-.49,1.12-.4a6.65,6.65,0,0,1,.69-.23,5.82,5.82,0,0,1,1.41-.25,1.74,1.74,0,0,1,.85.14,1.58,1.58,0,0,1,.54.42,2.67,2.67,0,0,1,.32.4,2.91,2.91,0,0,1,.23.42l.16.33a.81.81,0,0,0,.2.33.29.29,0,0,0,.3,0,.32.32,0,0,0,.2-.23.57.57,0,0,0,0-.29,4.14,4.14,0,0,0-.14-.5c-.07-.22-.14-.45-.23-.7s-.16-.48-.22-.69-.12-.36-.15-.45c-.18-.54-.3-1-.39-1.28s-.13-.55-.15-.72a2.13,2.13,0,0,0-.09-.35.77.77,0,0,0-.13-.2.16.16,0,0,0-.2,0,1,1,0,0,0-.25.16l-.25.2-.55.34-.84.46-.78.33-1.49.61c-.58.25-1.2.5-1.86.76l-1.89.77-1.6.65-1,.39c-.25.1-.56.22-.94.35l-1.26.46-1.37.53-1.43.56a2.06,2.06,0,0,0-.55.29.27.27,0,0,0-.08.32.28.28,0,0,0,.25.19,1.42,1.42,0,0,0,.46-.11c.25-.1.5-.2.76-.28a3.14,3.14,0,0,1,.62-.16,2.32,2.32,0,0,1,1,0,1.51,1.51,0,0,1,.7.45,4.35,4.35,0,0,1,.56.91c.09.21.2.43.3.66s.23.53.37.86l.52,1.24.75,1.85,1.07,2.66,2.45,6.05Z" transform="translate(-161.07 -27.47)"/><text x="-161.07" y="-27.47"/></g></g></svg>